<?xml version="1.0" encoding="UTF-8" standalone="no"?>
<svg
   xmlns:dc="http://purl.org/dc/elements/1.1/"
   xmlns:cc="http://creativecommons.org/ns#"
   xmlns:rdf="http://www.w3.org/1999/02/22-rdf-syntax-ns#"
   xmlns:svg="http://www.w3.org/2000/svg"
   xmlns="http://www.w3.org/2000/svg"
   xmlns:sodipodi="http://sodipodi.sourceforge.net/DTD/sodipodi-0.dtd"
   xmlns:inkscape="http://www.inkscape.org/namespaces/inkscape"
   width="570"
   height="570"
   id="svg2"
   version="1.1"
   inkscape:version="0.48.2 r9819"
   sodipodi:docname="TK_aletsch_icon.svg">
  <metadata
     id="metadata15">
    <rdf:RDF>
      <cc:Work
         rdf:about="">
        <dc:format>image/svg+xml</dc:format>
        <dc:type
           rdf:resource="http://purl.org/dc/dcmitype/StillImage" />
        <dc:title>black+white mountain</dc:title>
      </cc:Work>
    </rdf:RDF>
  </metadata>
  <defs
     id="defs13" />
  <sodipodi:namedview
     pagecolor="#ffffff"
     bordercolor="#666666"
     borderopacity="1"
     objecttolerance="10"
     gridtolerance="10"
     guidetolerance="10"
     inkscape:pageopacity="0"
     inkscape:pageshadow="2"
     inkscape:window-width="1920"
     inkscape:window-height="1152"
     id="namedview11"
     showgrid="false"
     fit-margin-top="0"
     fit-margin-left="0"
     fit-margin-right="0"
     fit-margin-bottom="0"
     inkscape:zoom="1.6385965"
     inkscape:cx="166.91114"
     inkscape:cy="285"
     inkscape:window-x="0"
     inkscape:window-y="0"
     inkscape:window-maximized="1"
     inkscape:current-layer="svg2" />
  <title
     id="title4">black+white mountain</title>
  <rect
     style="fill:none;stroke:#b3b3b3;stroke-width:25;stroke-linejoin:miter;stroke-miterlimit:4;stroke-dasharray:none"
     id="rect2994"
     width="554.38702"
     height="554.38708"
     x="7.793735"
     y="7.7926273"
     ry="93.043999" />
  <g
     id="g6"
     transform="matrix(-1,0,0,1,561.02195,90.841943)"
     style="stroke:#b3b3b3;fill:#b3b3b3">
    <title
       id="title8">Layer 1</title>
    <path
       id="path2"
       d="m 354.5,18.5 7.5,-1 6,3.5 q 6,3.5 19.25,14.75 13.25,11.25 19,19.5 5.75,8.25 9.5,14 3.75,5.75 8.5,12 4.75,6.25 14.25,13.75 9.5,7.5 25.75,17.25 16.25,9.75 21.5,13 5.25,3.25 13.5,9 8.25,5.75 16,11.5 7.75,5.75 14.25,10.25 l 6.5,4.5 -4.5,3 q -4.5,3 -10.5,1.5 -6,-1.5 -12.25,-6.25 -6.25,-4.75 -14,-10.5 Q 487,142.5 479,138.5 q -8,-4 -23.5,-10 -15.5,-6 -20.5,-9 -5,-3 -12.25,-8.25 -7.25,-5.25 -14,-11 -6.75,-5.75 -7,-6 L 401.5,94 l -0.25,0.25 q -0.25,0.25 -8.75,-1 L 384,92 381.5,87.75 q -2.5,-4.25 -5.25,-9 -2.75,-4.75 -6.5,-9 Q 366,65.5 363,64.25 l -3,-1.25 1,14.5 1,14.5 5,2.75 q 5,2.75 12.5,5.5 l 7.5,2.75 2.75,5 q 2.75,5 4.25,7.5 l 1.5,2.5 4.25,2.25 q 4.25,2.25 9,5.5 4.75,3.25 5,4.75 l 0.25,1.5 -23,2.75 q -23,2.75 -28.5,0.75 -5.5,-2 -5.75,-2.25 L 356.5,133 358,128 q 1.5,-5 4.5,-8 l 3,-3 -4.25,-2.25 q -4.25,-2.25 -10.5,-5 l -6.25,-2.75 -2,-6 q -2,-6 -4.75,-15.25 L 335,76.5 332.75,77.75 Q 330.5,79 328,87 q -2.5,8 -10.5,34.5 -8,26.5 -15.25,37.75 -7.25,11.25 -14.5,20.5 -7.25,9.25 -13.5,18.5 -6.25,9.25 -8.5,13.5 -2.25,4.25 -4.25,11.25 -2,7 -3.75,14.75 -1.75,7.75 -3.25,8 l -1.5,0.25 -0.75,-2 q -0.75,-2 0.75,-14.5 1.5,-12.5 5.25,-24.25 3.75,-11.75 6.5,-16.5 2.75,-4.75 9,-14 6.25,-9.25 11,-16 4.75,-6.75 6.75,-12.25 2,-5.5 4.75,-21.75 l 2.75,-16.25 -4,0 q -4,0 -7.75,3.25 -3.75,3.25 -7.75,11.25 -4,8 -15,40 -11,32 -21.25,52.25 -10.25,20.25 -13.5,25.5 -3.25,5.25 -10.5,17.5 -7.25,12.25 -16.5,23.5 -9.25,11.25 -11.5,14 -2.25,2.75 -4.25,4.75 -2,2 -13.5,11.5 -11.5,9.5 -29.5,18 -18,8.5 -30,14 -12,5.5 -16.25,7.75 L 93.5,354 95,350.5 q 1.5,-3.5 4.25,-7 2.75,-3.5 6,-5 3.25,-1.5 9.5,-6.25 Q 121,327.5 127,324 q 6,-3.5 11,-6.5 5,-3 14.25,-9.25 9.25,-6.25 18.5,-13.5 9.25,-7.25 15,-14 Q 191.5,274 195,269 q 3.5,-5 8,-14 4.5,-9 15,-28.5 10.5,-19.5 12.25,-27 l 1.75,-7.5 -1.75,-1 q -1.75,-1 -3.75,-3 -2,-2 -9.75,-9.75 Q 209,170.5 204.5,168.5 l -4.5,-2 -3.5,0 -3.5,0 -8.75,4.75 Q 175.5,176 169,188 q -6.5,12 -10,25.5 -3.5,13.5 -4,17 -0.5,3.5 -2,8 -1.5,4.5 -2.75,9.25 -1.25,4.75 -2.25,5 -1,0.25 -3.5,13.25 -2.5,13 -4.25,14.5 -1.75,1.5 -4.75,7 l -3,5.5 0.5,-11.5 0.5,-11.5 -4.25,5.25 q -4.25,5.25 -10.75,13.25 -6.5,8 -8.5,10.5 -2,2.5 -9,5.25 l -7,2.75 1.5,-4.5 q 1.5,-4.5 3.25,-6 1.75,-1.5 5.25,-7 3.5,-5.5 18,-32.5 14.5,-27 15.5,-34 1,-7 -0.25,-9.75 l -1.25,-2.75 -4.25,5.75 Q 127.5,222 119.5,236.5 111.5,251 91.25,288.25 71,325.5 66.75,331.75 62.5,338 58.25,344.5 54,351 51,353.25 48,355.5 36.5,365 25,374.5 22.75,375.75 L 20.5,377 22,374 q 1.5,-3 9,-12.5 Q 38.5,352 49.75,332.75 61,313.5 63.25,309.25 65.5,305 76.5,283 q 11,-22 13,-26 2,-4 22.5,-46.5 20.5,-42.5 24.75,-47.75 l 4.25,-5.25 7.5,-1 7.5,-1 3.75,-5.75 Q 163.5,144 170.25,132.25 177,120.5 183.5,114 q 6.5,-6.5 8.5,-7.5 l 2,-1 4.5,1.5 q 4.5,1.5 7.25,4.25 2.75,2.75 11,16 Q 225,140.5 233,149 q 8,8.5 11,10.75 l 3,2.25 2.75,-9 q 2.75,-9 6.75,-19 4,-10 3.75,-11.75 l -0.25,-1.75 1.25,-1.25 Q 262.5,118 266,112 q 3.5,-6 7.75,-11.25 Q 278,95.5 286,89.5 294,83.5 299.25,79.25 304.5,75 309,68.5 q 4.5,-6.5 7.25,-14 2.75,-7.5 4,-9 1.25,-1.5 7.5,-8.75 6.25,-7.25 8.75,-9.75 2.5,-2.5 6.5,-5 4,-2.5 11.5,-3.5 z"
       inkscape:connector-curvature="0"
       style="fill:#b3b3b3;fill-rule:evenodd;stroke:#b3b3b3;stroke-width:2px" />
  </g>
</svg>
